<svg xmlns="http://www.w3.org/2000/svg" viewBox="0 0 1200 760" role="img" aria-label="export logistics coordination"><defs><linearGradient id="bg" x1="0" y1="0" x2="1" y2="1"><stop offset="0" stop-color="#111827"/><stop offset="0.55" stop-color="#0f172a"/><stop offset="1" stop-color="#1e1b4b"/></linearGradient><linearGradient id="cyan" x1="0" y1="0" x2="1" y2="1"><stop offset="0" stop-color="#22d3ee"/><stop offset="1" stop-color="#6366f1"/></linearGradient><linearGradient id="coffee" x1="0" y1="0" x2="1" y2="1"><stop offset="0" stop-color="#f59e0b"/><stop offset="1" stop-color="#7c2d12"/></linearGradient><filter id="glow"><feGaussianBlur stdDeviation="16" result="b"/><feMerge><feMergeNode in="b"/><feMergeNode in="SourceGraphic"/></feMerge></filter></defs><rect width="1200" height="760" fill="url(#bg)"/><g opacity=".22"><path d="M0 120h1200M0 260h1200M0 400h1200M0 540h1200M180 0v760M420 0v760M660 0v760M900 0v760" stroke="#94a3b8" stroke-width="1"/></g><circle cx="940" cy="130" r="190" fill="#22d3ee" opacity=".12" filter="url(#glow)"/><circle cx="170" cy="620" r="230" fill="#6366f1" opacity=".16" filter="url(#glow)"/><g transform="translate(105 150)"><rect x="90" y="270" width="430" height="190" rx="22" fill="#334155"/><rect x="135" y="315" width="110" height="80" rx="10" fill="#64748b"/><rect x="270" y="315" width="110" height="80" rx="10" fill="#64748b"/><rect x="405" y="315" width="70" height="80" rx="10" fill="#64748b"/><circle cx="180" cy="485" r="42" fill="#0f172a"/><circle cx="430" cy="485" r="42" fill="#0f172a"/><rect x="585" y="195" width="315" height="265" rx="26" fill="#dbeafe"/><path d="M625 245h235M625 305h235M625 365h160" stroke="#475569" stroke-width="18" stroke-linecap="round"/><path d="M590 520c90-56 256-56 400 0" fill="none" stroke="url(#cyan)" stroke-width="26" stroke-linecap="round" opacity=".86"/><path d="M875 475l115 45-112 48" fill="none" stroke="url(#cyan)" stroke-width="26" stroke-linecap="round" stroke-linejoin="round"/></g></svg>